<svg xmlns="http://www.w3.org/2000/svg" viewBox="0 0 98.58 98.57"><title>icon-1Asset 1</title><g id="Layer_2" data-name="Layer 2"><g id="Layer_1-2" data-name="Layer 1"><path fill='white' d="M49.33,98.57C22.64,98.57-.42,75.91,0,49.22.46,21.54,21.71.36,49.38,0c26.56-.35,49.09,22.51,49.2,49.07.1,26.72-22.52,49.45-49.25,49.5M42.87,55.7V80.42c0,4.64,2.37,7.33,6.34,7.33s6.49-2.61,6.49-7.16V55.7H80.42c4.64,0,7.33-2.36,7.33-6.33s-2.61-6.52-7.16-6.52H55.7V18.15c0-4.64-2.36-7.32-6.33-7.32s-6.5,2.61-6.5,7.16V42.85H18.14c-4.64,0-7.32,2.37-7.32,6.34s2.61,6.49,7.16,6.49Z"/></g></g></svg>